<svg width="24" height="24" fill="none" xmlns="http://www.w3.org/2000/svg"><path fill-rule="evenodd" clip-rule="evenodd" d="M12 24c6.627 0 12-5.373 12-12S18.627 0 12 0 0 5.373 0 12s5.373 12 12 12zM3.05 8.096S5.62 2.88 11.576 2.88c4.707 0 9.853 3.298 9.853 9.827 0 5.006-4.17 9.049-9.218 9.049-5.556 0-9.33-4.395-9.33-9.06-.027-2.285.926-4.067.926-4.067l-.757-.533zm16.842 4.354c0-4.29-3.61-7.978-8.264-7.978-2.703 0-5.009 1.274-6.34 3.293l.159.141c1.017-.779 2.788-1.662 4.874-1.662 3.772 0 6.907 2.966 6.907 6.46 0 3.003-2.056 5.589-5.138 5.589-2.419 0-4.339-1.668-4.339-4.078 0-1.297.835-2.618 1.128-2.843l-.156-.168a4.206 4.206 0 00-2.026 3.66c0 3.061 2.689 5.294 5.67 5.294 4.05 0 7.525-3.162 7.525-7.708zm-4.309-.845c-.586-2.224-2.936-3.791-5.344-3.791-3.174 0-5.752 2.547-5.752 5.635 0 1.066.415 1.965.415 1.965l.22-.08c-.289-2.8 1.68-6.152 5.43-6.152 2.039 0 3.765 1.134 4.818 2.502l.213-.08zm-1.701 2.072c0-1.08-.912-1.988-2.051-1.988-1.155 0-2.44.983-2.44 2.453 0 1.427 1.18 2.488 2.517 2.488 1.397 0 2.081-1.057 2.081-1.057l-.69-.475s.583-.529.583-1.421z" fill="#313131"/></svg>