<svg width="19" height="20" viewBox="0 0 19 20" fill="none" xmlns="http://www.w3.org/2000/svg">
<path fill-rule="evenodd" clip-rule="evenodd" d="M5.6074 17.3469C4.69024 17.3051 4.19174 17.1524 3.86045 17.0233C3.42125 16.8523 3.10788 16.6487 2.7784 16.3197C2.44893 15.9907 2.24498 15.6776 2.07475 15.2384C1.94561 14.9073 1.79283 14.4087 1.75114 13.4915C1.70554 12.5 1.69643 12.2021 1.69643 9.69006C1.69643 7.178 1.70629 6.88097 1.75114 5.88859C1.79291 4.97147 1.94681 4.47381 2.07475 4.14172C2.24573 3.70253 2.44938 3.38917 2.7784 3.05971C3.10743 2.73025 3.4205 2.52631 3.86045 2.35608C4.19159 2.22695 4.69024 2.07418 5.6074 2.03249C6.59899 1.98688 6.89686 1.97778 9.4079 1.97778C11.9189 1.97778 12.2171 1.98764 13.2095 2.03249C14.1267 2.07426 14.6244 2.22815 14.9565 2.35608C15.3957 2.52631 15.709 2.7307 16.0385 3.05971C16.368 3.38872 16.5712 3.70253 16.7422 4.14172C16.8713 4.47283 17.0241 4.97147 17.0658 5.88859C17.1114 6.88097 17.1205 7.178 17.1205 9.69006C17.1205 12.2021 17.1114 12.4992 17.0658 13.4915C17.024 14.4087 16.8705 14.9071 16.7422 15.2384C16.5712 15.6776 16.3675 15.991 16.0385 16.3197C15.7095 16.6484 15.3957 16.8523 14.9565 17.0233C14.6253 17.1524 14.1267 17.3052 13.2095 17.3469C12.2179 17.3925 11.9201 17.4016 9.4079 17.4016C6.89573 17.4016 6.59869 17.3925 5.6074 17.3469ZM9.4079 14.5203C6.74002 14.5203 4.57743 12.3578 4.57743 9.68999C4.57743 7.02222 6.74002 4.85972 9.4079 4.85972C12.0758 4.85972 14.2384 7.02222 14.2384 9.68999C14.2384 12.3578 12.0758 14.5203 9.4079 14.5203ZM13.4907 5.29541C13.3668 5.10972 13.3006 4.89145 13.3007 4.66819C13.301 4.36894 13.42 4.08202 13.6317 3.87045C13.8433 3.65888 14.1308 3.53997 14.43 3.53983C14.6533 3.53992 14.8715 3.60621 15.0571 3.73032C15.2427 3.85443 15.3873 4.03079 15.4727 4.23708C15.5581 4.44338 15.5803 4.67036 15.5367 4.88931C15.493 5.10826 15.3854 5.30935 15.2275 5.46716C15.0696 5.62496 14.8684 5.73239 14.6494 5.77586C14.4304 5.81933 14.2034 5.79688 13.9972 5.71136C13.7909 5.62584 13.6147 5.48109 13.4907 5.29541Z" fill="#B0B0B0"/>
<path fill-rule="evenodd" clip-rule="evenodd" d="M5.6074 17.3469C4.69024 17.3051 4.19174 17.1524 3.86045 17.0233C3.42125 16.8523 3.10788 16.6487 2.7784 16.3197C2.44893 15.9907 2.24498 15.6776 2.07475 15.2384C1.94561 14.9073 1.79283 14.4087 1.75114 13.4915C1.70554 12.5 1.69643 12.2021 1.69643 9.69006C1.69643 7.178 1.70629 6.88097 1.75114 5.88859C1.79291 4.97147 1.94681 4.47381 2.07475 4.14172C2.24573 3.70253 2.44938 3.38917 2.7784 3.05971C3.10743 2.73025 3.4205 2.52631 3.86045 2.35608C4.19159 2.22695 4.69024 2.07418 5.6074 2.03249C6.59899 1.98688 6.89686 1.97778 9.4079 1.97778C11.9189 1.97778 12.2171 1.98764 13.2095 2.03249C14.1267 2.07426 14.6244 2.22815 14.9565 2.35608C15.3957 2.52631 15.709 2.7307 16.0385 3.05971C16.368 3.38872 16.5712 3.70253 16.7422 4.14172C16.8713 4.47283 17.0241 4.97147 17.0658 5.88859C17.1114 6.88097 17.1205 7.178 17.1205 9.69006C17.1205 12.2021 17.1114 12.4992 17.0658 13.4915C17.024 14.4087 16.8705 14.9071 16.7422 15.2384C16.5712 15.6776 16.3675 15.991 16.0385 16.3197C15.7095 16.6484 15.3957 16.8523 14.9565 17.0233C14.6253 17.1524 14.1267 17.3052 13.2095 17.3469C12.2179 17.3925 11.9201 17.4016 9.4079 17.4016C6.89573 17.4016 6.59869 17.3925 5.6074 17.3469ZM5.52951 0.340171C4.52806 0.385775 3.84375 0.544561 3.24613 0.777097C2.62721 1.01723 2.10327 1.3394 1.57971 1.86211C1.05614 2.38483 0.734792 2.90958 0.494646 3.52847C0.262101 4.12644 0.103308 4.81035 0.0577022 5.81176C0.0113437 6.81475 0.000732422 7.13541 0.000732422 9.68999C0.000732422 12.2446 0.0113437 12.5652 0.0577022 13.5682C0.103308 14.5697 0.262101 15.2535 0.494646 15.8515C0.734792 16.47 1.05622 16.9954 1.57971 17.5179C2.1032 18.0404 2.62721 18.3621 3.24613 18.6029C3.84488 18.8354 4.52806 18.9942 5.52951 19.0398C6.53307 19.0854 6.85321 19.0968 9.4079 19.0968C11.9626 19.0968 12.2833 19.0862 13.2863 19.0398C14.2878 18.9942 14.9717 18.8354 15.5697 18.6029C16.1882 18.3621 16.7125 18.0406 17.2361 17.5179C17.7596 16.9951 18.0803 16.47 18.3211 15.8515C18.5537 15.2535 18.7132 14.5696 18.7581 13.5682C18.8037 12.5645 18.8143 12.2446 18.8143 9.68999C18.8143 7.13541 18.8037 6.81475 18.7581 5.81176C18.7125 4.81028 18.5537 4.12606 18.3211 3.52847C18.0803 2.90995 17.7588 2.38566 17.2361 1.86211C16.7133 1.33857 16.1882 1.01723 15.5704 0.777097C14.9717 0.544561 14.2877 0.385022 13.287 0.340171C12.284 0.294567 11.9633 0.283203 9.40865 0.283203C6.85396 0.283203 6.53307 0.293814 5.52951 0.340171Z" fill="#B0B0B0"/>
<path d="M6.27268 9.68999C6.27268 7.95831 7.67615 6.55414 9.4079 6.55414C11.1396 6.55414 12.5439 7.95831 12.5439 9.68999C12.5439 11.4217 11.1396 12.8258 9.4079 12.8258C7.67615 12.8258 6.27268 11.4217 6.27268 9.68999Z" fill="#B0B0B0"/>
</svg>
