<svg width="20" height="18" viewBox="0 0 20 18" fill="none" xmlns="http://www.w3.org/2000/svg">
<path fill-rule="evenodd" clip-rule="evenodd" d="M13.9756 17.111C15.0746 17.5918 15.4867 16.5844 15.4867 16.5844L18.3945 1.97677C18.3716 0.992243 17.0436 1.58754 17.0436 1.58754L0.764603 7.9755C0.764603 7.9755 -0.0138585 8.25025 0.0548292 8.73107C0.123517 9.21188 0.741707 9.44084 0.741707 9.44084L4.84008 10.8146C4.84008 10.8146 6.07646 14.8672 6.32831 15.6456C6.55727 16.4012 6.76333 16.4241 6.76333 16.4241C6.99229 16.5157 7.19836 16.3554 7.19836 16.3554L9.85428 13.9513L13.9756 17.111ZM14.6853 4.56387C14.6853 4.56387 15.2577 4.22043 15.2348 4.56387C15.2348 4.56387 15.3264 4.60966 15.0287 4.93021C14.754 5.20496 8.27441 11.0205 7.40436 11.799C7.33567 11.8448 7.28988 11.9135 7.28988 12.005L7.03803 14.1573C6.99224 14.3862 6.69459 14.4091 6.6259 14.2031L5.54979 10.6771C5.504 10.5397 5.54979 10.3794 5.68717 10.2879L14.6853 4.56387Z" fill="#B0B0B0"/>
</svg>
