<svg width="31" height="19" viewBox="0 0 31 19" fill="none" xmlns="http://www.w3.org/2000/svg">
<path fill-rule="evenodd" clip-rule="evenodd" d="M30.31 2.09911C30.5193 1.41383 30.31 0.910156 29.3141 0.910156H26.0209C25.1835 0.910156 24.7977 1.34521 24.5884 1.82509C24.5884 1.82509 22.9136 5.83439 20.5411 8.43872C19.7736 9.19262 19.4247 9.43221 19.006 9.43221C18.7967 9.43221 18.4937 9.19262 18.4937 8.50734V2.09911C18.4937 1.27659 18.2507 0.910156 17.5528 0.910156H12.3779C11.8547 0.910156 11.54 1.29184 11.54 1.65366C11.54 2.43343 12.726 2.61318 12.8483 4.80625V9.56968C12.8483 10.614 12.6564 10.8035 12.2377 10.8035C11.1213 10.8035 8.40588 6.7759 6.79506 2.16773C6.47939 1.27197 6.16278 0.910156 5.32115 0.910156H2.028C1.08711 0.910156 0.898926 1.34521 0.898926 1.82509C0.898926 2.6818 2.01554 6.93116 6.09739 12.5511C8.81894 16.3887 12.6526 18.4695 16.1415 18.4695C18.235 18.4695 18.4937 18.0074 18.4937 17.2115V14.3107C18.4937 13.3865 18.692 13.2022 19.3546 13.2022C19.8434 13.2022 20.6806 13.442 22.6346 15.2924C24.8674 17.4852 25.2353 18.4695 26.4914 18.4695H29.7845C30.7254 18.4695 31.1958 18.0074 30.9244 17.0955C30.6275 16.1865 29.5615 14.8682 28.1469 13.305C27.3793 12.4138 26.2279 11.4543 25.8793 10.9747C25.3907 10.3578 25.5302 10.0838 25.8793 9.53572C25.8793 9.53572 29.8913 3.9842 30.31 2.09934V2.09911Z" fill="#B0B0B0"/>
</svg>
