<svg width="26" height="18" viewBox="0 0 26 18" fill="none" xmlns="http://www.w3.org/2000/svg">
<path fill-rule="evenodd" clip-rule="evenodd" d="M22.6561 0.635448C23.7058 0.91806 24.5335 1.74571 24.8161 2.79542C25.3409 4.71314 25.3208 8.71009 25.3208 8.71009C25.3208 8.71009 25.3208 12.6869 24.8161 14.6046C24.5335 15.6543 23.7058 16.4819 22.6561 16.7646C20.7384 17.2692 13.0675 17.2692 13.0675 17.2692C13.0675 17.2692 5.41676 17.2692 3.47884 16.7444C2.42914 16.4618 1.60149 15.6341 1.31887 14.5844C0.814209 12.6869 0.814209 8.68991 0.814209 8.68991C0.814209 8.68991 0.814209 4.71314 1.31887 2.79542C1.60149 1.74571 2.44932 0.897874 3.47884 0.615261C5.39657 0.110596 13.0675 0.110596 13.0675 0.110596C13.0675 0.110596 20.7384 0.110596 22.6561 0.635448ZM17.0038 8.68986L10.6249 12.3638V5.0159L17.0038 8.68986Z" fill="#B0B0B0"/>
</svg>
