<svg width="24" height="24" fill="none" xmlns="http://www.w3.org/2000/svg"><path fill-rule="evenodd" clip-rule="evenodd" d="M11.987 24C6.554 24 1.963 20.397.478 15.452l.008-.027 4.23 1.71a3.195 3.195 0 001.917 2.248c1.652.676 3.557-.095 4.244-1.714a3.14 3.14 0 00.25-1.31l4.099-2.871.1.002c2.453 0 4.446-1.96 4.446-4.366 0-2.406-1.993-4.364-4.446-4.364-2.451 0-4.446 1.958-4.446 4.364l.001.057-2.864 4.077a3.267 3.267 0 00-1.92.521L.09 11.355 0 11.204C.411 4.947 5.62 0 11.987 0 18.622 0 24 5.373 24 12s-5.378 12-12.013 12zm-5.069-5.289c1.276.521 2.743-.072 3.275-1.324a2.4 2.4 0 00.004-1.88 2.461 2.461 0 00-1.352-1.334 2.536 2.536 0 00-1.847-.027l1.496.607a1.797 1.797 0 01.993 2.366c-.39.922-1.47 1.359-2.41.975l-1.448-.588c.256.525.7.965 1.29 1.205zm5.446-9.587c0 1.604 1.33 2.909 2.962 2.909 1.634 0 2.963-1.305 2.963-2.909 0-1.602-1.329-2.908-2.963-2.908-1.632 0-2.962 1.306-2.962 2.908zm2.967-2.19c-1.227 0-2.224.98-2.224 2.186s.997 2.184 2.224 2.184c1.23 0 2.226-.978 2.226-2.184 0-1.207-.997-2.185-2.226-2.185z" fill="#313131"/></svg>