<svg width="148" height="57" fill="none" xmlns="http://www.w3.org/2000/svg"><path d="M76.606 27.352c-1.536 0-2.715-.332-3.539-.995-.823-.664-1.234-1.622-1.234-2.875 0-.344.037-.719.11-1.124a49.29 49.29 0 01.719-3.392c.38-1.548 1.167-2.746 2.359-3.594 1.204-.86 2.672-1.29 4.405-1.29 1.081 0 1.996.166 2.746.498.75.32 1.308.737 1.677 1.253.38.516.571 1.07.571 1.659 0 .098-.012.246-.037.442a.465.465 0 01-.184.277.465.465 0 01-.313.11h-2.69a.548.548 0 01-.277-.055.38.38 0 01-.148-.203 1.647 1.647 0 00-.553-.921c-.282-.27-.73-.406-1.345-.406-1.475 0-2.408.774-2.802 2.322a51.063 51.063 0 00-.681 3.207 4.903 4.903 0 00-.056.682c0 1.168.633 1.751 1.899 1.751.724 0 1.345-.184 1.861-.553.516-.38.854-.958 1.014-1.732l.073-.35H78.45a.39.39 0 01-.313-.13.478.478 0 01-.056-.35l.295-1.363a.527.527 0 01.203-.332.542.542 0 01.369-.148h4.644a.39.39 0 01.313.13c.05.073.074.153.074.239a.347.347 0 01-.018.11l-.443 2.102c-.233 1.044-.67 1.947-1.308 2.709-.64.75-1.444 1.327-2.415 1.732-.958.393-2.02.59-3.188.59zm11.182 0c-1.032 0-1.83-.283-2.396-.848-.553-.577-.83-1.382-.83-2.414 0-.283.031-.639.093-1.069l.276-1.309c.344-1.351.916-2.408 1.714-3.17.799-.761 1.819-1.142 3.06-1.142.7 0 1.247.098 1.64.295.405.196.737.473.995.83l.092-.48a.528.528 0 01.203-.332.561.561 0 01.35-.129h2.064a.39.39 0 01.314.13.393.393 0 01.073.22.348.348 0 01-.018.11l-1.825 8.663a.527.527 0 01-.202.332.562.562 0 01-.35.129h-2.083a.39.39 0 01-.313-.13.441.441 0 01-.056-.331l.13-.59c-.43.406-.867.713-1.31.922-.43.209-.97.313-1.621.313zm1.29-2.47c.565 0 1.026-.178 1.382-.534.357-.356.602-.805.738-1.345.122-.48.22-.94.294-1.383.025-.11.037-.264.037-.46 0-.394-.104-.707-.313-.94-.209-.234-.534-.35-.977-.35-.995 0-1.683.645-2.064 1.935a9.54 9.54 0 00-.258 1.142 3.916 3.916 0 00-.055.645c0 .406.092.725.276.959.184.22.498.331.94.331zm7.058 2.286a.39.39 0 01-.313-.13c-.074-.085-.098-.196-.074-.331l1.843-8.662a.528.528 0 01.203-.332.586.586 0 01.369-.129h2.009a.39.39 0 01.313.13.398.398 0 01.074.22.357.357 0 01-.019.11l-.129.628a4.923 4.923 0 011.216-.94c.418-.222.94-.332 1.567-.332.7 0 1.272.141 1.714.424.455.27.768.657.94 1.16.885-1.056 1.917-1.584 3.096-1.584.873 0 1.567.24 2.083.719.528.466.792 1.167.792 2.1 0 .345-.049.762-.147 1.254l-1.106 5.234a.528.528 0 01-.203.332.56.56 0 01-.35.129h-2.138a.39.39 0 01-.313-.13c-.074-.085-.098-.196-.074-.331l1.088-5.105c.049-.234.073-.46.073-.682 0-.7-.344-1.05-1.032-1.05-.405 0-.78.14-1.124.423-.332.27-.559.707-.682 1.309l-1.087 5.105a.528.528 0 01-.203.332.562.562 0 01-.35.129h-2.138a.389.389 0 01-.313-.13c-.074-.085-.099-.196-.074-.331l1.106-5.105c.049-.209.073-.418.073-.627 0-.737-.35-1.106-1.05-1.106-.393 0-.762.142-1.106.424-.344.283-.577.713-.7 1.29l-1.106 5.124a.528.528 0 01-.203.332.49.49 0 01-.332.129h-2.193zm21.048.184c-1.266 0-2.243-.289-2.931-.866-.675-.59-1.013-1.45-1.013-2.58 0-.308.043-.72.129-1.235.086-.406.135-.62.147-.645.356-1.45 1.044-2.58 2.064-3.391 1.032-.824 2.267-1.235 3.705-1.235 1.302 0 2.279.325 2.93.977.664.639.995 1.505.995 2.598 0 .406-.049.854-.147 1.346l-.092.442a.618.618 0 01-.221.332.565.565 0 01-.351.129h-5.897l-.037.129a3.085 3.085 0 00-.055.571c0 .418.098.75.295.995.208.246.509.369.903.369.307 0 .571-.062.792-.184.221-.136.436-.295.645-.48a1.37 1.37 0 01.295-.24.907.907 0 01.35-.055h2.285c.123 0 .215.037.277.111a.27.27 0 01.055.166c0 .037-.006.08-.018.129-.086.32-.357.688-.811 1.106-.442.405-1.038.761-1.788 1.069-.749.295-1.585.442-2.506.442zm2.819-5.953l.019-.037a4.46 4.46 0 00.074-.626c0-.418-.105-.744-.314-.977-.209-.234-.516-.35-.921-.35-.492 0-.909.178-1.253.534-.344.344-.578.817-.701 1.42l-.018.036h3.114zM71.538 45.168a.39.39 0 01-.314-.13c-.073-.085-.098-.196-.073-.331l2.543-11.98a.527.527 0 01.203-.331.586.586 0 01.368-.13h1.99c.296 0 .486.136.572.406l2.009 5.806 4.478-5.806c.062-.098.148-.19.259-.276a.752.752 0 01.442-.13h2.009a.39.39 0 01.313.13c.05.073.074.147.074.22a.348.348 0 01-.019.111l-2.543 11.98a.528.528 0 01-.203.332.562.562 0 01-.35.129h-2.23a.39.39 0 01-.313-.13.44.44 0 01-.055-.331l1.437-6.8-2.82 3.74c-.123.136-.24.24-.35.314a.681.681 0 01-.387.11h-.958c-.258 0-.437-.14-.535-.423l-1.308-3.908-1.475 6.967a.528.528 0 01-.203.332.562.562 0 01-.35.129h-2.211zm19.206.184c-1.315 0-2.34-.295-3.078-.885-.737-.602-1.105-1.431-1.105-2.488 0-.258.018-.516.055-.774a8.872 8.872 0 01.35-1.658c.356-1.327.995-2.347 1.917-3.06.934-.725 2.156-1.087 3.667-1.087 1.303 0 2.329.3 3.078.903.762.602 1.143 1.437 1.143 2.506 0 .234-.019.48-.056.738-.16.835-.276 1.388-.35 1.658-.368 1.34-1.007 2.366-1.916 3.078-.897.713-2.132 1.069-3.705 1.069zm.277-2.248c1.069 0 1.775-.664 2.119-1.99.16-.615.264-1.107.313-1.475a5.85 5.85 0 00.074-.719c0-.418-.104-.731-.313-.94-.197-.221-.51-.332-.94-.332-1.045 0-1.739.664-2.083 1.99-.123.406-.227.898-.313 1.475-.05.246-.074.492-.074.737 0 .418.092.731.277.94.196.21.51.314.94.314zm6.807 2.064a.39.39 0 01-.313-.13c-.074-.085-.099-.196-.074-.331l1.843-8.662a.528.528 0 01.203-.332.586.586 0 01.369-.129h2.119a.39.39 0 01.313.13.344.344 0 01.074.22.356.356 0 01-.018.11l-.148.701a4.807 4.807 0 011.419-.977 4.228 4.228 0 011.769-.368c.971 0 1.727.252 2.267.756.541.49.811 1.21.811 2.156 0 .344-.049.762-.147 1.253l-1.106 5.142a.528.528 0 01-.203.332.49.49 0 01-.331.129h-2.323a.39.39 0 01-.313-.13.398.398 0 01-.074-.331l1.069-5.031a3.88 3.88 0 00.092-.72c0-.368-.098-.638-.294-.81-.197-.184-.51-.277-.94-.277-.553 0-1.02.16-1.401.48-.381.307-.633.75-.756 1.327l-1.05 5.031a.528.528 0 01-.203.332.562.562 0 01-.35.129h-2.304zm15.529.184c-.922 0-1.677-.123-2.267-.369-.59-.245-1.02-.546-1.29-.903-.258-.356-.387-.694-.387-1.013l.018-.166a.46.46 0 01.185-.332.538.538 0 01.331-.129h2.101c.074 0 .135.03.185.092.012.013.116.099.313.258.197.172.387.307.571.406.197.098.449.147.756.147.393 0 .725-.086.995-.258a.87.87 0 00.406-.755c0-.222-.148-.406-.443-.553-.282-.148-.841-.308-1.677-.48-1.745-.38-2.617-1.154-2.617-2.322 0-.11.025-.313.074-.608.11-.504.375-.983.792-1.438.418-.454.971-.823 1.659-1.105.688-.283 1.468-.424 2.341-.424.811 0 1.499.123 2.064.368.577.234 1.007.529 1.29.885.282.356.424.694.424 1.014l-.019.147a.504.504 0 01-.184.332.47.47 0 01-.313.129h-1.917a.327.327 0 01-.24-.092 2.173 2.173 0 01-.387-.277 2.24 2.24 0 00-.516-.368c-.159-.086-.374-.13-.645-.13-.381 0-.682.093-.903.277a.892.892 0 00-.332.719c0 .209.142.387.424.534.283.136.836.283 1.659.443 1.008.184 1.732.491 2.175.921.454.418.682.922.682 1.511 0 .172-.019.35-.056.535-.196.91-.761 1.64-1.695 2.193-.922.54-2.107.811-3.557.811zm10.999-.184c-2.248 0-3.373-.848-3.373-2.544 0-.368.043-.73.129-1.087l.756-3.538h-1.438a.39.39 0 01-.313-.13.44.44 0 01-.055-.331l.313-1.493a.528.528 0 01.203-.332.56.56 0 01.35-.129h1.456l.645-3.04a.528.528 0 01.203-.333.56.56 0 01.35-.129h2.138a.39.39 0 01.313.13.398.398 0 01.074.22.33.33 0 01-.019.111l-.645 3.041h2.304c.135 0 .24.043.313.13.05.06.074.134.074.22a.356.356 0 01-.018.11l-.314 1.494a.526.526 0 01-.202.331.564.564 0 01-.351.13h-2.322l-.7 3.28a2.815 2.815 0 00-.074.645c0 .246.062.43.185.553.122.11.331.166.626.166h1.456c.135 0 .234.043.295.129a.344.344 0 01.074.221.33.33 0 01-.019.11l-.331 1.604a.532.532 0 01-.203.332.562.562 0 01-.35.129h-1.53zm8.126.184c-1.266 0-2.242-.289-2.93-.866-.676-.59-1.014-1.45-1.014-2.58 0-.308.043-.72.129-1.235.086-.406.135-.62.147-.645.357-1.45 1.045-2.58 2.065-3.391 1.032-.824 2.267-1.235 3.704-1.235 1.302 0 2.279.325 2.93.977.664.639.996 1.505.996 2.598 0 .406-.05.854-.148 1.346l-.092.442a.618.618 0 01-.221.332.562.562 0 01-.35.129H131.8l-.037.129a3.085 3.085 0 00-.055.571c0 .418.098.75.295.995.209.246.51.369.903.369.307 0 .571-.062.792-.184.222-.136.437-.295.645-.48.123-.123.222-.202.295-.24a.91.91 0 01.351-.054h2.285c.123 0 .215.036.276.11a.27.27 0 01.056.166c0 .037-.007.08-.019.129-.086.32-.356.688-.811 1.106-.442.405-1.038.761-1.787 1.069-.75.295-1.585.442-2.507.442zm2.82-5.953l.018-.037a4.46 4.46 0 00.074-.626c0-.418-.104-.744-.313-.977-.209-.234-.516-.35-.922-.35-.491 0-.909.178-1.253.534-.344.344-.578.817-.7 1.42l-.019.036h3.115zm3.922 5.769a.392.392 0 01-.314-.13c-.073-.085-.098-.196-.073-.331l1.843-8.662a.526.526 0 01.202-.332.588.588 0 01.369-.129h2.119a.39.39 0 01.314.13.397.397 0 01.073.22.356.356 0 01-.018.11l-.147.738c.638-.799 1.56-1.198 2.764-1.198h1.032a.37.37 0 01.295.13.344.344 0 01.074.22.33.33 0 01-.019.11l-.387 1.9a.526.526 0 01-.202.33.588.588 0 01-.369.13h-1.769c-.504 0-.928.141-1.272.424-.332.27-.553.657-.663 1.16l-.996 4.719a.526.526 0 01-.202.332.588.588 0 01-.369.129h-2.285z" fill="#fff"/><path d="M29.977 2.27c-10.492 3.405-11.308 12.06-10.2 13.952l7.525.118c-2.652-4.494-1.007-10.804 2.675-14.07z" fill="#D00"/><path d="M32.828 4.675c-6.282 3.304-5.484 10.204-4.581 11.478 1.88.447 4.42.126 5.455-.09-2.158-3.03-1.246-8.922-.874-11.388z" fill="#3D0A66"/><path d="M15.153 43.159c4.265-3.656 8.53-4.463 11.73-4.553 3.2.09 7.466.897 11.732 4.553 4.562 3.91 13.685 8.472 14.989-3.258 1.303-11.731-5.214-28.675-18.248-25.417-2.788.93-6.474 1.238-8.472 1.294-1.999-.056-5.684-.364-8.473-1.294C5.377 11.226-1.139 28.17.164 39.901c1.303 11.73 10.427 7.168 14.989 3.258z" fill="#fff"/><circle cx="14.002" cy="28.505" r="8.957" fill="#000"/><path fill-rule="evenodd" clip-rule="evenodd" d="M11.238 23.896a1.303 1.303 0 10-1.844 1.844l2.765 2.764-2.766 2.766a1.303 1.303 0 001.844 1.843l2.765-2.766 2.765 2.766a1.303 1.303 0 001.844-1.843l-2.766-2.766 2.765-2.764a1.303 1.303 0 10-1.843-1.843l-2.765 2.764-2.764-2.765z" fill="#D00"/><circle cx="41.248" cy="23.818" r="2.472" transform="rotate(15.884 41.248 23.818)" fill="#3D0A66"/><circle cx="44.303" cy="29.307" r="2.472" transform="rotate(15.884 44.303 29.307)" fill="#3D0A66"/><circle cx="38.815" cy="32.361" r="2.472" transform="rotate(15.884 38.815 32.361)" fill="#3D0A66"/><circle cx="35.76" cy="26.873" r="2.472" transform="rotate(15.884 35.76 26.873)" fill="#3D0A66"/><path d="M19.837 56.279c.002-3.208.275-4.365 1.212-7.14 0 0-1.812-.577-2.315-.787-.502-.21-2.24-1.231-2.24-1.231-.192 1.201-.722 6.365 3.343 9.158zm14.412-.131c-.002-3.207-.228-4.56-1.166-7.335 0 0 1.546-.507 2.173-.82.627-.314 2.178-1.212 2.178-1.212.193 1.201.88 6.575-3.185 9.367z" fill="#D00"/></svg>